<svg width="114" height="36" viewBox="0 0 114 36" fill="none" xmlns="http://www.w3.org/2000/svg">
<g clip-path="url(#clip0_970_7875)">
<path d="M74.0418 27.9334C70.6096 27.9334 67.8164 25.1496 67.8164 21.729H70.9241C70.9241 23.4426 72.3223 24.8362 74.0418 24.8362C75.7612 24.8362 77.1595 23.4426 77.1595 21.729C77.1595 21.2389 77.1595 19.7453 74.3897 19.0552L74.3127 19.0319L72.8977 18.5985C70.2383 17.6883 68.7731 15.828 68.7731 13.3543C68.7731 10.4571 71.1382 8.10339 74.0418 8.10339C76.9454 8.10339 79.3104 10.4605 79.3104 13.3543H76.2027C76.2027 12.1674 75.2326 11.2006 74.0418 11.2006C72.8509 11.2006 71.8808 12.1674 71.8808 13.3543C71.8808 13.7977 71.8808 14.9679 73.8812 15.6613L75.1858 16.0614C78.4172 16.8815 80.2671 18.9485 80.2671 21.7323C80.2671 25.1529 77.4739 27.9367 74.0418 27.9367V27.9334Z" fill="white"/>
<path d="M17.6124 22.6191C17.7161 23.5393 18.074 24.2527 18.6895 24.7661C19.305 25.2762 20.0477 25.5329 20.9207 25.5329C21.6901 25.5329 22.3357 25.3762 22.8576 25.0595C23.3794 24.7461 23.8344 24.3494 24.2291 23.8727L26.4336 25.5329C25.7144 26.4198 24.9115 27.0499 24.0251 27.4233C23.1352 27.7967 22.2053 27.9867 21.2318 27.9867C20.3086 27.9867 19.4388 27.8333 18.6159 27.5266C17.793 27.2199 17.0872 26.7865 16.4884 26.2231C15.8896 25.6596 15.4146 24.9862 15.0667 24.1927C14.7155 23.4026 14.5415 22.5191 14.5415 21.5489C14.5415 20.5788 14.7155 19.6986 15.0667 18.9052C15.4179 18.115 15.8896 17.4383 16.4884 16.8748C17.0872 16.3114 17.7964 15.878 18.6159 15.5713C19.4355 15.2646 20.3086 15.1112 21.2318 15.1112C22.0849 15.1112 22.8676 15.2612 23.5768 15.5579C24.286 15.8547 24.8915 16.2847 25.3966 16.8482C25.9017 17.4116 26.2931 18.105 26.5741 18.9285C26.8551 19.7553 26.9989 20.7055 26.9989 21.7756V22.6191H17.6191H17.6124ZM23.918 20.3187C23.9013 19.4153 23.6169 18.7051 23.0717 18.1851C22.5231 17.665 21.7637 17.4049 20.7903 17.4049C19.867 17.4049 19.1378 17.6683 18.5992 18.1951C18.0606 18.7218 17.7328 19.4286 17.6124 20.3154H23.918V20.3187Z" fill="white"/>
<path d="M48.4951 22.6191C48.5988 23.5393 48.9567 24.2527 49.5723 24.7661C50.1878 25.2762 50.9304 25.5329 51.8035 25.5329C52.5729 25.5329 53.2185 25.3762 53.737 25.0595C54.2588 24.7461 54.7138 24.3494 55.1085 23.8727L57.313 25.5329C56.5938 26.4198 55.7909 27.0499 54.9045 27.4233C54.0146 27.7967 53.0847 27.9867 52.1112 27.9867C51.188 27.9867 50.3182 27.8333 49.4953 27.5266C48.6758 27.2199 47.9666 26.7865 47.3678 26.2231C46.769 25.6596 46.294 24.9862 45.9461 24.1927C45.5948 23.4026 45.4209 22.5191 45.4209 21.5489C45.4209 20.5788 45.5948 19.6986 45.9461 18.9052C46.2973 18.115 46.769 17.4383 47.3678 16.8748C47.9666 16.3114 48.6758 15.878 49.4953 15.5713C50.3149 15.2646 51.188 15.1112 52.1112 15.1112C52.9643 15.1112 53.747 15.2612 54.4562 15.5579C55.1654 15.8547 55.7708 16.2847 56.276 16.8482C56.7811 17.4116 57.1725 18.105 57.4568 18.9285C57.7378 19.7553 57.8783 20.7055 57.8783 21.7756V22.6191H48.4985H48.4951ZM54.8008 20.3187C54.784 19.4153 54.503 18.7051 53.9544 18.1851C53.4058 17.665 52.6465 17.4049 51.673 17.4049C50.7498 17.4049 50.0205 17.6683 49.4819 18.1951C48.9434 18.7218 48.6155 19.4286 48.4951 20.3154H54.8008V20.3187Z" fill="white"/>
<path d="M59.4639 15.4179H62.5381V17.3582H62.5883C62.9295 16.6415 63.4179 16.088 64.0501 15.698C64.6823 15.3046 65.4082 15.1112 66.2278 15.1112C66.4151 15.1112 66.5991 15.1279 66.7798 15.1612C66.957 15.1946 67.1444 15.2379 67.3317 15.2879V18.2517C67.0741 18.1851 66.8232 18.1284 66.5757 18.085C66.3282 18.0417 66.084 18.0217 65.8464 18.0217C65.1272 18.0217 64.5519 18.155 64.117 18.4184C63.6821 18.6818 63.3476 18.9852 63.1168 19.3252C62.886 19.6653 62.7321 20.0054 62.6552 20.3487C62.5782 20.6888 62.5414 20.9455 62.5414 21.1155V27.68H59.4672V15.4179H59.4639Z" fill="white"/>
<path d="M84.9205 17.1282H84.9707C85.2115 16.6181 85.633 16.1547 86.2385 15.7346C86.8439 15.3179 87.6267 15.1078 88.5834 15.1078C89.403 15.1078 90.0988 15.2445 90.6708 15.5179C91.2428 15.7913 91.7078 16.148 92.0691 16.5914C92.427 17.0348 92.6846 17.5449 92.8385 18.125C92.9924 18.7051 93.0693 19.3085 93.0693 19.9386V27.6799H89.9951V21.4722C89.9951 21.1322 89.9784 20.7521 89.9449 20.3354C89.9115 19.9186 89.8211 19.5252 89.6773 19.1618C89.5301 18.7951 89.306 18.4884 88.9982 18.2417C88.6905 17.995 88.2723 17.8716 87.7438 17.8716C87.2153 17.8716 86.8005 17.9583 86.4492 18.1283C86.098 18.2984 85.8069 18.5284 85.5761 18.8184C85.3453 19.1085 85.1781 19.4385 85.0777 19.8153C84.974 20.1887 84.9238 20.5821 84.9238 20.9921V27.6866H81.8496V8.3667H84.9238V17.1282H84.9205Z" fill="white"/>
<path d="M94.6348 11.2539C94.6348 10.7605 94.8187 10.3304 95.1867 9.96367C95.5547 9.59694 96.0197 9.41357 96.5817 9.41357C97.1436 9.41357 97.6187 9.59027 98.0034 9.93699C98.388 10.2871 98.5821 10.7238 98.5821 11.2539C98.5821 11.784 98.3914 12.2207 98.0034 12.5708C97.6187 12.9208 97.1436 13.0942 96.5817 13.0942C96.0197 13.0942 95.5513 12.9108 95.1867 12.5441C94.8187 12.1774 94.6348 11.7473 94.6348 11.2539ZM95.0696 15.4179H98.1439V27.68H95.0696V15.4179Z" fill="white"/>
<path d="M12.5745 17.6681C11.8151 16.5779 10.7848 15.8478 9.4869 15.4844C10.3566 14.6776 10.7949 13.6141 10.7949 12.3005C10.7949 10.987 10.3098 9.96679 9.33637 9.17999C8.36292 8.39319 7.20884 7.99646 5.87077 7.99646H5.30878C2.37507 7.99979 0 10.3669 0 13.2907V27.6997H6.96464C8.83125 27.6997 10.4202 27.0896 11.7382 25.8661C13.0562 24.6426 13.7152 23.1823 13.7152 21.4854C13.7152 20.0318 13.3338 18.7583 12.5745 17.6681ZM3.19464 13.5541C3.19464 12.8506 3.4288 12.2472 3.89378 11.7604C4.35876 11.2703 4.96089 11.0203 5.6801 11.0203C6.29895 11.0203 6.81411 11.227 7.20884 11.6371C7.60357 12.0438 7.80428 12.5439 7.80428 13.1206C7.80428 13.7374 7.60022 14.2508 7.1988 14.6542C6.79738 15.0576 6.21532 15.2577 5.4727 15.2577H3.19464V13.5541ZM9.48021 23.509C8.84463 24.1425 7.92805 24.4625 6.75055 24.4625H3.15449V21.7888C3.15449 20.6752 3.52581 19.7217 4.26174 18.9483C4.99768 18.1748 5.94771 17.7814 7.08507 17.7814C8.06186 17.7814 8.87139 18.1081 9.49693 18.7516C10.1191 19.395 10.4369 20.1818 10.4369 21.092C10.4369 22.0655 10.1158 22.8789 9.48021 23.509Z" fill="white"/>
<path d="M44.9224 18.0384V15.4313H40.8815C40.8815 15.4313 41.3966 15.0579 41.8248 14.1577C42.3099 13.1409 42.1694 11.8874 42.1694 11.8874H39.0951V12.2708C39.0951 14.0077 37.6735 15.4246 35.9306 15.428H32.562C32.562 15.428 33.0772 15.0579 33.5054 14.1544C33.9904 13.1376 33.8499 11.884 33.8499 11.884H30.7757V12.2674C30.7757 14.0044 29.3507 15.428 27.6045 15.428V18.0351H30.1401V23.656C30.1401 24.3728 30.197 25.0029 30.3074 25.5463C30.4178 26.0931 30.6218 26.5465 30.9229 26.9132C31.2206 27.2799 31.6321 27.55 32.1539 27.73C32.6758 27.91 33.3448 28.0001 34.1644 28.0001C34.5223 28.0001 34.9371 27.97 35.4088 27.91C35.8771 27.85 36.2752 27.7433 36.5997 27.59V25.0096C36.4123 25.1462 36.1547 25.2429 35.8303 25.3029C35.5058 25.3629 35.2081 25.393 34.9338 25.393C34.2513 25.393 33.7931 25.2163 33.5622 24.8562C33.3314 24.4995 33.2177 24.0127 33.2177 23.3993V18.0351H38.4596V23.656C38.4596 24.3728 38.5164 25.0029 38.6268 25.5463C38.7372 26.0931 38.9413 26.5465 39.2423 26.9132C39.5434 27.2799 39.9515 27.55 40.4734 27.73C40.9952 27.91 41.6642 28.0001 42.4838 28.0001C42.8417 28.0001 43.2565 27.97 43.7282 27.91C44.1965 27.85 44.5946 27.7433 44.9191 27.59V25.0096C44.7318 25.1462 44.4742 25.2429 44.1497 25.3029C43.8252 25.3629 43.5275 25.393 43.2532 25.393C42.5708 25.393 42.1125 25.2163 41.8817 24.8562C41.6509 24.4995 41.5371 24.0127 41.5371 23.3993V18.0351H44.9224V18.0384Z" fill="white"/>
<path d="M114 18.0383V15.4312H109.959C109.959 15.4312 110.474 15.0611 110.902 14.1577C111.387 13.1408 111.247 11.8873 111.247 11.8873H108.173V12.2707C108.173 14.001 106.758 15.4179 105.021 15.4279H103.228V13.1908C103.228 12.8508 103.248 12.5274 103.292 12.2207C103.335 11.914 103.429 11.6472 103.573 11.4172C103.717 11.1872 103.917 11.0038 104.175 10.8671C104.433 10.7304 104.774 10.6637 105.202 10.6637C105.423 10.6637 105.637 10.6804 105.841 10.7138C106.045 10.7471 106.259 10.7904 106.48 10.8404L106.684 8.23667C106.085 8.11665 105.436 8.05664 104.737 8.05664C103.78 8.05664 103.001 8.19 102.405 8.45337C101.807 8.71675 101.342 9.09681 101.007 9.59023C100.676 10.0836 100.449 10.6771 100.328 11.3672C100.208 12.0573 100.147 12.8274 100.147 13.6776V27.6766H103.222V18.035H107.53V23.6559C107.53 24.3727 107.587 25.0028 107.698 25.5462C107.808 26.093 108.012 26.5464 108.313 26.9131C108.611 27.2798 109.022 27.5499 109.544 27.7299C110.066 27.91 110.735 28 111.554 28C111.912 28 112.327 27.97 112.799 27.91C113.267 27.8499 113.665 27.7433 113.99 27.5899V25.0095C113.802 25.1462 113.545 25.2428 113.22 25.3029C112.896 25.3629 112.598 25.3929 112.324 25.3929C111.641 25.3929 111.183 25.2162 110.952 24.8561C110.722 24.4994 110.608 24.0126 110.608 23.3992V18.035H113.993L114 18.0383Z" fill="white"/>
</g>
<defs>
<clipPath id="clip0_970_7875">
<rect width="114" height="20" fill="white" transform="translate(0 8)"/>
</clipPath>
</defs>
</svg>
