<svg width="172" height="47" viewBox="0 0 172 47" fill="none" xmlns="http://www.w3.org/2000/svg">
<g clip-path="url(#clip0_1058_8761)">
<path d="M111.712 38.8966C106.534 38.8966 102.32 34.5817 102.32 29.2798H107.009C107.009 31.936 109.118 34.096 111.712 34.096C114.307 34.096 116.416 31.936 116.416 29.2798C116.416 28.5202 116.416 26.2052 112.237 25.1355L112.121 25.0993L109.986 24.4275C105.974 23.0168 103.763 20.1333 103.763 16.299C103.763 11.8084 107.332 8.16016 111.712 8.16016C116.093 8.16016 119.662 11.8136 119.662 16.299H114.973C114.973 14.4594 113.509 12.9608 111.712 12.9608C109.916 12.9608 108.452 14.4594 108.452 16.299C108.452 16.9863 108.452 18.8001 111.47 19.8749L113.439 20.495C118.314 21.7663 121.105 24.9701 121.105 29.285C121.105 34.5869 116.891 38.9018 111.712 38.9018V38.8966Z" fill="#C8C1B6"/>
<path d="M26.5732 30.6597C26.7296 32.086 27.2697 33.1918 28.1983 33.9876C29.127 34.7783 30.2475 35.1762 31.5648 35.1762C32.7256 35.1762 33.6997 34.9333 34.487 34.4424C35.2744 33.9566 35.9608 33.3417 36.5563 32.6027L39.8824 35.1762C38.7972 36.5507 37.5859 37.5274 36.2485 38.1061C34.9059 38.6849 33.5028 38.9795 32.0341 38.9795C30.6411 38.9795 29.3289 38.7417 28.0873 38.2663C26.8457 37.7909 25.7808 37.1191 24.8774 36.2458C23.9739 35.3725 23.2572 34.3287 22.7323 33.0988C22.2024 31.8741 21.9399 30.5047 21.9399 29.001C21.9399 27.4972 22.2024 26.133 22.7323 24.9031C23.2623 23.6784 23.9739 22.6294 24.8774 21.7561C25.7808 20.8828 26.8508 20.211 28.0873 19.7356C29.3238 19.2602 30.6411 19.0225 32.0341 19.0225C33.3211 19.0225 34.5022 19.255 35.5721 19.7149C36.6421 20.1748 37.5557 20.8414 38.3178 21.7147C39.0799 22.5881 39.6704 23.6629 40.0943 24.9393C40.5183 26.2208 40.7353 27.6936 40.7353 29.3523V30.6597H26.5833H26.5732ZM36.087 27.0941C36.0617 25.6937 35.6327 24.5931 34.81 23.7869C33.9823 22.9808 32.8366 22.5777 31.3679 22.5777C29.9749 22.5777 28.8747 22.986 28.0621 23.8024C27.2495 24.6189 26.7549 25.7144 26.5732 27.089H36.087V27.0941Z" fill="#C8C1B6"/>
<path d="M73.1676 30.6597C73.324 32.086 73.8641 33.1918 74.7927 33.9876C75.7214 34.7783 76.8419 35.1762 78.1592 35.1762C79.32 35.1762 80.2941 34.9333 81.0764 34.4424C81.8637 33.9566 82.5501 33.3417 83.1457 32.6027L86.4717 35.1762C85.3866 36.5507 84.1753 37.5274 82.8378 38.1061C81.4953 38.6849 80.0922 38.9795 78.6235 38.9795C77.2305 38.9795 75.9182 38.7417 74.6767 38.2663C73.4401 37.7909 72.3701 37.1191 71.4667 36.2458C70.5633 35.3725 69.8466 34.3287 69.3217 33.0988C68.7917 31.8741 68.5293 30.5047 68.5293 29.001C68.5293 27.4972 68.7917 26.133 69.3217 24.9031C69.8516 23.6784 70.5633 22.6294 71.4667 21.7561C72.3701 20.8828 73.4401 20.211 74.6767 19.7356C75.9132 19.2602 77.2305 19.0225 78.6235 19.0225C79.9105 19.0225 81.0915 19.255 82.1615 19.7149C83.2315 20.1748 84.145 20.8414 84.9071 21.7147C85.6692 22.5881 86.2597 23.6629 86.6887 24.9393C87.1127 26.2208 87.3247 27.6936 87.3247 29.3523V30.6597H73.1726H73.1676ZM82.6814 27.0941C82.6561 25.6937 82.2322 24.5931 81.4044 23.7869C80.5767 22.9808 79.431 22.5777 77.9623 22.5777C76.5693 22.5777 75.4691 22.986 74.6565 23.8024C73.8439 24.6189 73.3493 25.7144 73.1676 27.089H82.6814V27.0941Z" fill="#C8C1B6"/>
<path d="M89.7173 19.4979H94.3556V22.5054H94.4313C94.9461 21.3944 95.683 20.5365 96.6369 19.9319C97.5908 19.3222 98.686 19.0225 99.9225 19.0225C100.205 19.0225 100.483 19.0483 100.755 19.1C101.023 19.1516 101.305 19.2188 101.588 19.2963V23.8903C101.199 23.7869 100.821 23.6991 100.447 23.6319C100.074 23.5647 99.7055 23.5337 99.3471 23.5337C98.262 23.5337 97.3939 23.7404 96.7378 24.1486C96.0817 24.5569 95.577 25.0271 95.2287 25.5542C94.8805 26.0813 94.6483 26.6084 94.5322 27.1406C94.4161 27.6677 94.3606 28.0656 94.3606 28.3292V38.504H89.7223V19.4979H89.7173Z" fill="#C8C1B6"/>
<path d="M128.125 22.1486H128.201C128.565 21.358 129.2 20.6397 130.114 19.9886C131.027 19.3427 132.209 19.0171 133.652 19.0171C134.889 19.0171 135.938 19.229 136.801 19.6527C137.664 20.0764 138.366 20.6294 138.911 21.3167C139.451 22.0039 139.84 22.7946 140.072 23.6937C140.304 24.5929 140.42 25.5282 140.42 26.5049V38.5038H135.782V28.8819C135.782 28.3548 135.757 27.7657 135.706 27.1198C135.656 26.4738 135.519 25.8641 135.302 25.3008C135.08 24.7324 134.742 24.257 134.278 23.8746C133.813 23.4922 133.183 23.301 132.385 23.301C131.588 23.301 130.962 23.4353 130.432 23.6989C129.902 23.9624 129.463 24.319 129.115 24.7686C128.766 25.2181 128.514 25.7297 128.363 26.3137C128.206 26.8924 128.13 27.5022 128.13 28.1378V38.5142H123.492V8.56836H128.13V22.1486H128.125Z" fill="#C8C1B6"/>
<path d="M142.782 13.0434C142.782 12.2786 143.06 11.612 143.615 11.0436C144.17 10.4751 144.872 10.1909 145.72 10.1909C146.568 10.1909 147.284 10.4648 147.865 11.0022C148.445 11.5448 148.738 12.2218 148.738 13.0434C148.738 13.865 148.45 14.542 147.865 15.0846C147.284 15.6272 146.568 15.8959 145.72 15.8959C144.872 15.8959 144.165 15.6117 143.615 15.0432C143.06 14.4748 142.782 13.8082 142.782 13.0434ZM143.438 19.4976H148.077V38.5038H143.438V19.4976Z" fill="#C8C1B6"/>
<path d="M18.972 22.9861C17.8263 21.2963 16.2718 20.1646 14.3136 19.6014C15.6258 18.3508 16.287 16.7024 16.287 14.6664C16.287 12.6304 15.5552 11.0491 14.0864 9.82959C12.6177 8.61005 10.8765 7.99512 8.85765 7.99512H8.00974C3.58344 8.00028 0 11.6692 0 16.2012V38.5352H10.5081C13.3243 38.5352 15.7217 37.5895 17.7103 35.6931C19.6988 33.7966 20.6931 31.5332 20.6931 28.9029C20.6931 26.6499 20.1177 24.6759 18.972 22.9861ZM4.81998 16.6094C4.81998 15.519 5.17327 14.5837 5.87482 13.8293C6.57637 13.0696 7.48484 12.6821 8.56997 12.6821C9.50368 12.6821 10.2809 13.0025 10.8765 13.6381C11.472 14.2685 11.7749 15.0436 11.7749 15.9376C11.7749 16.8936 11.467 17.6894 10.8614 18.3147C10.2557 18.9399 9.37751 19.25 8.25705 19.25H4.81998V16.6094ZM14.3035 32.0396C13.3445 33.0215 11.9616 33.5175 10.185 33.5175H4.75941V29.3732C4.75941 27.6472 5.31964 26.1693 6.43 24.9704C7.54036 23.7716 8.97374 23.1618 10.6898 23.1618C12.1635 23.1618 13.3849 23.6682 14.3287 24.6656C15.2675 25.6629 15.7469 26.8824 15.7469 28.2932C15.7469 29.8021 15.2624 31.063 14.3035 32.0396Z" fill="#C8C1B6"/>
<path d="M67.7773 23.5593V19.5183H61.6804C61.6804 19.5183 62.4576 18.9395 63.1036 17.5443C63.8355 15.9682 63.6235 14.0252 63.6235 14.0252H58.9852V14.6195C58.9852 17.3117 56.8402 19.5079 54.2107 19.5131H49.1282C49.1282 19.5131 49.9055 18.9395 50.5515 17.5391C51.2833 15.963 51.0714 14.02 51.0714 14.02H46.4331V14.6143C46.4331 17.3066 44.283 19.5131 41.6484 19.5131V23.5541H45.4741V32.2666C45.4741 33.3776 45.5599 34.3542 45.7265 35.1966C45.893 36.044 46.2009 36.7468 46.6552 37.3152C47.1044 37.8837 47.7251 38.3022 48.5125 38.5813C49.2998 38.8603 50.3093 38.9999 51.5458 38.9999C52.0858 38.9999 52.7117 38.9533 53.4233 38.8603C54.1299 38.7673 54.7305 38.6019 55.2201 38.3642V34.3646C54.9374 34.5764 54.5488 34.7263 54.0592 34.8193C53.5697 34.9123 53.1205 34.9588 52.7066 34.9588C51.677 34.9588 50.9856 34.685 50.6373 34.1269C50.2891 33.5739 50.1175 32.8195 50.1175 31.8687V23.5541H58.0263V32.2666C58.0263 33.3776 58.1121 34.3542 58.2786 35.1966C58.4452 36.044 58.753 36.7468 59.2073 37.3152C59.6615 37.8837 60.2773 38.3022 61.0646 38.5813C61.852 38.8603 62.8614 38.9999 64.0979 38.9999C64.638 38.9999 65.2638 38.9533 65.9754 38.8603C66.682 38.7673 67.2826 38.6019 67.7722 38.3642V34.3646C67.4896 34.5764 67.1009 34.7263 66.6114 34.8193C66.1218 34.9123 65.6726 34.9588 65.2588 34.9588C64.2291 34.9588 63.5377 34.685 63.1894 34.1269C62.8412 33.5739 62.6696 32.8195 62.6696 31.8687V23.5541H67.7773V23.5593Z" fill="#C8C1B6"/>
<path d="M172 23.559V19.518H165.903C165.903 19.518 166.68 18.9444 167.327 17.544C168.058 15.9679 167.846 14.0249 167.846 14.0249H163.208V14.6192C163.208 17.3011 161.073 19.4973 158.454 19.5128H155.748V16.0454C155.748 15.5183 155.779 15.0171 155.844 14.5416C155.91 14.0662 156.051 13.6528 156.268 13.2963C156.485 12.9397 156.788 12.6555 157.177 12.4436C157.565 12.2318 158.08 12.1284 158.726 12.1284C159.059 12.1284 159.382 12.1542 159.69 12.2059C159.998 12.2576 160.321 12.3248 160.654 12.4023L160.962 8.36645C160.059 8.18042 159.08 8.0874 158.025 8.0874C156.581 8.0874 155.405 8.2941 154.507 8.70234C153.603 9.11057 152.902 9.69967 152.397 10.4645C151.898 11.2293 151.554 12.1491 151.373 13.2188C151.191 14.2884 151.1 15.4821 151.1 16.7999V38.4983H155.738V23.5538H162.239V32.2663C162.239 33.3773 162.325 34.3539 162.491 35.1963C162.658 36.0437 162.966 36.7465 163.42 37.3149C163.869 37.8834 164.49 38.3019 165.277 38.581C166.065 38.86 167.074 38.9996 168.311 38.9996C168.851 38.9996 169.477 38.953 170.188 38.86C170.895 38.767 171.495 38.6017 171.985 38.3639V34.3643C171.702 34.5762 171.314 34.726 170.824 34.819C170.335 34.912 169.885 34.9585 169.472 34.9585C168.442 34.9585 167.75 34.6847 167.402 34.1266C167.054 33.5737 166.882 32.8192 166.882 31.8684V23.5538H171.99L172 23.559Z" fill="#C8C1B6"/>
</g>
<defs>
<clipPath id="clip0_1058_8761">
<rect width="172" height="31" fill="white" transform="translate(0 8)"/>
</clipPath>
</defs>
</svg>
