<svg width="40" height="40" viewBox="0 0 40 40" fill="none" xmlns="http://www.w3.org/2000/svg">
<path d="M28.0034 19.7751C27.0727 18.4344 25.8098 17.5365 24.219 17.0896C25.285 16.0973 25.8221 14.7894 25.8221 13.174C25.8221 11.5586 25.2276 10.304 24.0345 9.33637C22.8414 8.36876 21.4269 7.88086 19.7869 7.88086H19.0981C15.5064 7.88086 12.5913 10.7919 12.5913 14.3876V32.108H21.1276C23.4154 32.108 25.3629 31.3577 26.9784 29.853C28.5938 28.3483 29.4015 26.5524 29.4015 24.4655C29.4015 22.6779 28.9341 21.1117 28.0034 19.771V19.7751ZM16.5068 14.7156C16.5068 13.8505 16.7939 13.1084 17.3638 12.5098C17.9337 11.9071 18.6717 11.5996 19.5532 11.5996C20.3117 11.5996 20.9431 11.8538 21.4269 12.3581C21.9107 12.8583 22.1567 13.4733 22.1567 14.1826C22.1567 14.9411 21.9066 15.5725 21.4146 16.0686C20.9226 16.5647 20.2092 16.8108 19.299 16.8108H16.5068V14.7156ZM24.2108 26.9584C23.4318 27.7374 22.3084 28.131 20.8652 28.131H16.4576V24.8427C16.4576 23.4733 16.9128 22.3007 17.8148 21.3495C18.7168 20.3983 19.8812 19.9145 21.2752 19.9145C22.4724 19.9145 23.4646 20.3163 24.2313 21.1076C24.9939 21.8989 25.3834 22.8665 25.3834 23.9858C25.3834 25.183 24.9898 26.1834 24.2108 26.9584Z" fill="white"/>
<path d="M20 39.9959C8.97089 39.9959 0 31.025 0 20C0 8.97499 8.97089 0 20 0C31.0291 0 40 8.97089 40 20C40 31.0291 31.0291 40 20 40V39.9959ZM20 1.42681C9.7581 1.43091 1.43091 9.7581 1.43091 20C1.43091 30.2419 9.7622 38.5691 20 38.5691C30.2378 38.5691 38.5691 30.2378 38.5691 20C38.5691 9.7622 30.2378 1.43091 20 1.43091V1.42681Z" fill="white"/>
</svg>
