<svg width="21" height="24" viewBox="0 0 21 24" fill="none" xmlns="http://www.w3.org/2000/svg">
<path d="M18.8426 11.5562L10.1145 20.2843C8.39037 22.0084 5.59376 22.2807 3.71286 20.7298C1.55972 18.9561 1.44422 15.7553 3.37463 13.8249L13.5711 3.62838C14.6518 2.54768 16.409 2.34144 17.5886 3.30664C18.9498 4.42034 19.0241 6.42498 17.8114 7.63767L9.14933 16.2997C8.6956 16.7535 7.95314 16.7535 7.49941 16.2997C7.04569 15.846 7.04569 15.1035 7.49941 14.6498L14.7178 7.43143C15.056 7.0932 15.056 6.53223 14.7178 6.194C14.3796 5.85576 13.8186 5.85576 13.4804 6.194L6.37747 13.2969C5.29678 14.3776 5.09054 16.1347 6.05574 17.3144C7.16943 18.6756 9.17408 18.7499 10.3868 17.5372L18.9086 9.01535C20.6327 7.29119 20.905 4.49458 19.3541 2.61368C17.5722 0.45229 14.3796 0.345045 12.4492 2.27545L2.32693 12.3977C-0.0406997 14.7653 -0.42843 18.6179 1.70821 21.2C4.17483 24.1616 8.55536 24.3183 11.2117 21.662L20.08 12.7937C20.4183 12.4554 20.4183 11.8945 20.08 11.5562C19.7418 11.218 19.1808 11.218 18.8426 11.5562Z" fill="black"/>
</svg>
