<svg width="21" height="20" viewBox="0 0 21 20" fill="none" xmlns="http://www.w3.org/2000/svg">
<g clip-path="url(#clip0_371_8333)">
<path d="M15.5003 10.8334H11.3337V15.0001C11.3337 15.4584 10.9587 15.8334 10.5003 15.8334C10.042 15.8334 9.66699 15.4584 9.66699 15.0001V10.8334H5.50033C5.04199 10.8334 4.66699 10.4584 4.66699 10.0001C4.66699 9.54175 5.04199 9.16675 5.50033 9.16675H9.66699V5.00008C9.66699 4.54175 10.042 4.16675 10.5003 4.16675C10.9587 4.16675 11.3337 4.54175 11.3337 5.00008V9.16675H15.5003C15.9587 9.16675 16.3337 9.54175 16.3337 10.0001C16.3337 10.4584 15.9587 10.8334 15.5003 10.8334Z" fill="#323232"/>
</g>
<rect x="1" y="0.5" width="19" height="19" rx="9.5" stroke="#D8D8DC"/>
<defs>
<clipPath id="clip0_371_8333">
<rect x="0.5" width="20" height="20" rx="10" fill="white"/>
</clipPath>
</defs>
</svg>
