<svg width="33" height="33" viewBox="0 0 33 33" fill="none" xmlns="http://www.w3.org/2000/svg">
<rect width="33" height="33" rx="16.5" fill="#F1F1F1"/>
<path d="M13.561 19.395C14.9103 18.383 15.9517 17.4773 16.685 16.678C17.4257 15.8713 17.796 15.083 17.796 14.313C17.796 13.807 17.6677 13.4037 17.411 13.103C17.1617 12.795 16.751 12.641 16.179 12.641C15.6217 12.641 15.189 12.817 14.881 13.169C14.5803 13.5137 14.4117 13.9757 14.375 14.555H13.627C13.671 13.741 13.9203 13.1103 14.375 12.663C14.837 12.2083 15.4383 11.981 16.179 11.981C16.8903 11.981 17.466 12.1827 17.906 12.586C18.346 12.982 18.566 13.5467 18.566 14.28C18.566 15.1673 18.1957 16.029 17.455 16.865C16.7217 17.6937 15.816 18.504 14.738 19.296H18.808V19.945H13.561V19.395Z" fill="#868C98"/>
</svg>
