<svg width="33" height="33" viewBox="0 0 33 33" fill="none" xmlns="http://www.w3.org/2000/svg">
<rect width="33" height="33" rx="16.5" fill="#F1F1F1"/>
<path d="M13.682 14.126C13.7333 13.4587 13.99 12.9343 14.452 12.553C14.9213 12.1643 15.5263 11.97 16.267 11.97C16.7583 11.97 17.18 12.058 17.532 12.234C17.884 12.41 18.148 12.652 18.324 12.96C18.5073 13.2607 18.599 13.6017 18.599 13.983C18.599 14.445 18.4633 14.8447 18.192 15.182C17.9207 15.5193 17.5357 15.7283 17.037 15.809V15.864C17.5577 15.9667 17.972 16.194 18.28 16.546C18.588 16.8907 18.742 17.3453 18.742 17.91C18.742 18.5407 18.5293 19.0577 18.104 19.461C17.686 19.857 17.0773 20.055 16.278 20.055C15.5153 20.055 14.8883 19.857 14.397 19.461C13.9057 19.0577 13.6233 18.4893 13.55 17.756H14.298C14.364 18.2473 14.5693 18.647 14.914 18.955C15.2587 19.2557 15.7133 19.406 16.278 19.406C16.8353 19.406 17.2607 19.2593 17.554 18.966C17.8547 18.6727 18.005 18.2987 18.005 17.844C18.005 16.7293 17.202 16.172 15.596 16.172H15.354V15.523H15.607C17.103 15.523 17.851 15.0353 17.851 14.06C17.851 13.6347 17.7117 13.2937 17.433 13.037C17.1543 12.773 16.7583 12.641 16.245 12.641C15.7463 12.641 15.332 12.773 15.002 13.037C14.6793 13.2937 14.4887 13.6567 14.43 14.126H13.682Z" fill="#868C98"/>
</svg>
