<svg width="18" height="15" viewBox="0 0 18 15" fill="none" xmlns="http://www.w3.org/2000/svg">
<path d="M8.15968 14.455L12.3072 10.3C12.5847 10.0225 12.7422 9.64 12.7422 9.2425V1.75C12.7422 0.925 12.0672 0.25 11.2422 0.25H4.49968C3.89968 0.25 3.35968 0.61 3.12718 1.1575L0.682181 6.865C0.0446805 8.35 1.13218 10 2.74468 10H6.98218L6.26968 13.435C6.19468 13.81 6.30718 14.1925 6.57718 14.4625C7.01968 14.8975 7.72468 14.8975 8.15968 14.455V14.455ZM15.7497 0.25C14.9247 0.25 14.2497 0.925 14.2497 1.75V7.75C14.2497 8.575 14.9247 9.25 15.7497 9.25C16.5747 9.25 17.2497 8.575 17.2497 7.75V1.75C17.2497 0.925 16.5747 0.25 15.7497 0.25Z" fill="#323232"/>
</svg>
