<svg width="18" height="15" viewBox="0 0 18 15" fill="none" xmlns="http://www.w3.org/2000/svg">
<path d="M9.84 0.544977L5.685 4.69998C5.4075 4.97748 5.25 5.35998 5.25 5.75748V13.25C5.25 14.075 5.925 14.75 6.75 14.75H13.5C14.1 14.75 14.64 14.39 14.88 13.8425L17.325 8.13498C17.955 6.64998 16.8675 4.99998 15.255 4.99998H11.0175L11.73 1.56498C11.805 1.18998 11.6925 0.807477 11.4225 0.537477C10.98 0.102477 10.275 0.102477 9.84 0.544977V0.544977ZM2.25 14.75C3.075 14.75 3.75 14.075 3.75 13.25V7.24998C3.75 6.42498 3.075 5.74998 2.25 5.74998C1.425 5.74998 0.75 6.42498 0.75 7.24998V13.25C0.75 14.075 1.425 14.75 2.25 14.75Z" fill="#1F4B24"/>
</svg>
